<mxfile host="app.diagrams.net" modified="2020-11-25T11:24:22.706Z" agent="5.0 (X11)" etag="lzArw-S1s41eHyJum83f" version="13.10.2" type="github" pages="2">
  <diagram id="wFE0QG_FPsp0jaGvCLVb" name="Page-1">
    <mxGraphModel dx="1355" dy="764" grid="1" gridSize="10" guides="1" tooltips="1" connect="1" arrows="1" fold="1" page="1" pageScale="1" pageWidth="850" pageHeight="1100" math="0" shadow="0">
      <root>
        <mxCell id="0" />
        <mxCell id="1" parent="0" />
        <mxCell id="_5mSTuPxr-ZiKRkBDSY7-1" value="" style="swimlane;fontStyle=2;childLayout=stackLayout;horizontal=1;startSize=28;horizontalStack=1;resizeParent=1;resizeParentMax=0;resizeLast=0;collapsible=0;marginBottom=0;swimlaneFillColor=none;fontFamily=Permanent Marker;fontSize=16;points=[];verticalAlign=top;stackBorder=0;resizable=1;strokeWidth=2;sketch=1;disableMultiStroke=1;" parent="1" vertex="1">
          <mxGeometry x="160" y="80" width="540" height="440" as="geometry" />
        </mxCell>
        <object label="TO DO" status="New" id="_5mSTuPxr-ZiKRkBDSY7-2">
          <mxCell style="swimlane;strokeWidth=2;fontFamily=Permanent Marker;html=0;startSize=1;verticalAlign=bottom;spacingBottom=5;points=[];childLayout=stackLayout;stackBorder=20;stackSpacing=20;resizeLast=0;resizeParent=1;horizontalStack=0;collapsible=0;sketch=1;strokeColor=none;fillStyle=solid;fillColor=#A0522D;" parent="_5mSTuPxr-ZiKRkBDSY7-1" vertex="1">
            <mxGeometry y="28" width="180" height="412" as="geometry" />
          </mxCell>
        </object>
        <object label="DOING" status="In progress" id="_5mSTuPxr-ZiKRkBDSY7-6">
          <mxCell style="swimlane;strokeWidth=2;fontFamily=Permanent Marker;html=0;startSize=1;verticalAlign=bottom;spacingBottom=5;points=[];childLayout=stackLayout;stackBorder=20;stackSpacing=20;resizeLast=0;resizeParent=1;horizontalStack=0;collapsible=0;sketch=1;strokeColor=none;fillStyle=solid;fillColor=#006600;" parent="_5mSTuPxr-ZiKRkBDSY7-1" vertex="1">
            <mxGeometry x="180" y="28" width="180" height="412" as="geometry" />
          </mxCell>
        </object>
        <object label="DONE" status="Completed" id="_5mSTuPxr-ZiKRkBDSY7-9">
          <mxCell style="swimlane;strokeWidth=2;fontFamily=Permanent Marker;html=0;startSize=1;verticalAlign=bottom;spacingBottom=5;points=[];childLayout=stackLayout;stackBorder=20;stackSpacing=20;resizeLast=0;resizeParent=1;horizontalStack=0;collapsible=0;sketch=1;strokeColor=none;fillStyle=solid;fillColor=#1BA1E2;" parent="_5mSTuPxr-ZiKRkBDSY7-1" vertex="1">
            <mxGeometry x="360" y="28" width="180" height="421" as="geometry" />
          </mxCell>
        </object>
        <object label="分析需求" placeholders="1" id="_5mSTuPxr-ZiKRkBDSY7-3">
          <mxCell style="whiteSpace=wrap;html=1;strokeWidth=2;fillColor=swimlane;fontStyle=1;spacingTop=0;rounded=1;arcSize=9;points=[];sketch=1;fontFamily=Permanent Marker;hachureGap=8;fillWeight=1;" parent="_5mSTuPxr-ZiKRkBDSY7-9" vertex="1">
            <mxGeometry x="20" y="21" width="140" height="80" as="geometry" />
          </mxCell>
        </object>
        <object label="设想" placeholders="1" id="_5mSTuPxr-ZiKRkBDSY7-4">
          <mxCell style="whiteSpace=wrap;html=1;strokeWidth=2;fillColor=swimlane;fontStyle=1;spacingTop=0;rounded=1;arcSize=9;points=[];sketch=1;fontFamily=Permanent Marker;hachureGap=8;fillWeight=1;" parent="_5mSTuPxr-ZiKRkBDSY7-9" vertex="1">
            <mxGeometry x="20" y="121" width="140" height="80" as="geometry" />
          </mxCell>
        </object>
        <object label="创建验证工程" placeholders="1" id="_5mSTuPxr-ZiKRkBDSY7-5">
          <mxCell style="whiteSpace=wrap;html=1;strokeWidth=2;fillColor=swimlane;fontStyle=1;spacingTop=0;rounded=1;arcSize=9;points=[];sketch=1;fontFamily=Permanent Marker;hachureGap=8;fillWeight=1;" parent="_5mSTuPxr-ZiKRkBDSY7-9" vertex="1">
            <mxGeometry x="20" y="221" width="140" height="80" as="geometry" />
          </mxCell>
        </object>
        <object label="实现设想" placeholders="1" id="4MnOgGULIkgBbk0K_rB_-1">
          <mxCell style="whiteSpace=wrap;html=1;strokeWidth=2;fillColor=swimlane;fontStyle=1;spacingTop=0;rounded=1;arcSize=9;points=[];sketch=1;fontFamily=Permanent Marker;hachureGap=8;fillWeight=1;" parent="_5mSTuPxr-ZiKRkBDSY7-9" vertex="1">
            <mxGeometry x="20" y="321" width="140" height="80" as="geometry" />
          </mxCell>
        </object>
      </root>
    </mxGraphModel>
  </diagram>
  <diagram id="-x9ymw5KhDv8MPtxY_vU" name="Page-2">
    <mxGraphModel dx="1355" dy="764" grid="1" gridSize="10" guides="1" tooltips="1" connect="1" arrows="1" fold="1" page="1" pageScale="1" pageWidth="850" pageHeight="1100" math="0" shadow="0">
      <root>
        <mxCell id="Qd0OxM6gDkYLaGl2a9qX-0" />
        <mxCell id="Qd0OxM6gDkYLaGl2a9qX-1" parent="Qd0OxM6gDkYLaGl2a9qX-0" />
        <mxCell id="Qd0OxM6gDkYLaGl2a9qX-11" style="edgeStyle=orthogonalEdgeStyle;rounded=0;orthogonalLoop=1;jettySize=auto;html=1;exitX=1;exitY=0.5;exitDx=0;exitDy=0;entryX=0;entryY=0.5;entryDx=0;entryDy=0;" edge="1" parent="Qd0OxM6gDkYLaGl2a9qX-1" source="Qd0OxM6gDkYLaGl2a9qX-2" target="Qd0OxM6gDkYLaGl2a9qX-10">
          <mxGeometry relative="1" as="geometry" />
        </mxCell>
        <mxCell id="Qd0OxM6gDkYLaGl2a9qX-2" value="ThermalManagerService" style="rounded=0;whiteSpace=wrap;html=1;" vertex="1" parent="Qd0OxM6gDkYLaGl2a9qX-1">
          <mxGeometry x="100" y="100" width="170" height="60" as="geometry" />
        </mxCell>
        <mxCell id="Qd0OxM6gDkYLaGl2a9qX-7" style="edgeStyle=orthogonalEdgeStyle;rounded=0;orthogonalLoop=1;jettySize=auto;html=1;exitX=1;exitY=0.5;exitDx=0;exitDy=0;entryX=0;entryY=0.5;entryDx=0;entryDy=0;" edge="1" parent="Qd0OxM6gDkYLaGl2a9qX-1" source="Qd0OxM6gDkYLaGl2a9qX-3" target="Qd0OxM6gDkYLaGl2a9qX-5">
          <mxGeometry relative="1" as="geometry" />
        </mxCell>
        <mxCell id="Qd0OxM6gDkYLaGl2a9qX-3" value="ThermalHAL" style="rounded=0;whiteSpace=wrap;html=1;" vertex="1" parent="Qd0OxM6gDkYLaGl2a9qX-1">
          <mxGeometry x="100" y="180" width="170" height="60" as="geometry" />
        </mxCell>
        <mxCell id="Qd0OxM6gDkYLaGl2a9qX-8" style="edgeStyle=orthogonalEdgeStyle;rounded=0;orthogonalLoop=1;jettySize=auto;html=1;exitX=1;exitY=0.5;exitDx=0;exitDy=0;entryX=0;entryY=0.5;entryDx=0;entryDy=0;" edge="1" parent="Qd0OxM6gDkYLaGl2a9qX-1" source="Qd0OxM6gDkYLaGl2a9qX-4" target="Qd0OxM6gDkYLaGl2a9qX-6">
          <mxGeometry relative="1" as="geometry" />
        </mxCell>
        <mxCell id="Qd0OxM6gDkYLaGl2a9qX-4" value="ThermalVendor" style="rounded=0;whiteSpace=wrap;html=1;" vertex="1" parent="Qd0OxM6gDkYLaGl2a9qX-1">
          <mxGeometry x="100" y="260" width="170" height="60" as="geometry" />
        </mxCell>
        <mxCell id="Qd0OxM6gDkYLaGl2a9qX-5" value="&lt;div&gt;Android8+&lt;/div&gt;&lt;div&gt;hardware/interfaces/thermal/&lt;br&gt;&lt;span style=&quot;color: rgb(0 , 0 , 0) ; font-family: monospace ; font-size: medium ; font-style: normal ; font-weight: 400 ; letter-spacing: normal ; text-indent: 0px ; text-transform: none ; word-spacing: 0px ; background-color: rgb(255 , 255 , 255) ; display: inline ; float: none&quot;&gt;&lt;/span&gt;&lt;span style=&quot;color: rgb(0 , 0 , 0) ; font-family: monospace ; font-size: medium ; font-style: normal ; font-weight: 400 ; letter-spacing: normal ; text-indent: 0px ; text-transform: none ; word-spacing: 0px ; background-color: rgb(255 , 255 , 255) ; display: inline ; float: none&quot;&gt;&lt;/span&gt;&lt;span style=&quot;color: rgb(0 , 0 , 0) ; font-family: monospace ; font-size: medium ; font-style: normal ; font-weight: 400 ; letter-spacing: normal ; text-indent: 0px ; text-transform: none ; word-spacing: 0px ; background-color: rgb(255 , 255 , 255) ; display: inline ; float: none&quot;&gt;&lt;/span&gt;&lt;/div&gt;" style="rounded=0;whiteSpace=wrap;html=1;" vertex="1" parent="Qd0OxM6gDkYLaGl2a9qX-1">
          <mxGeometry x="310" y="180" width="300" height="60" as="geometry" />
        </mxCell>
        <mxCell id="Qd0OxM6gDkYLaGl2a9qX-6" value="&lt;div&gt;Android11&lt;br&gt;&lt;span style=&quot;color: rgb(0 , 0 , 0) ; font-family: monospace ; font-size: medium ; font-style: normal ; font-weight: 400 ; letter-spacing: normal ; text-indent: 0px ; text-transform: none ; word-spacing: 0px ; background-color: rgb(255 , 255 , 255) ; display: inline ; float: none&quot;&gt;&lt;/span&gt;&lt;span style=&quot;color: rgb(0 , 0 , 0) ; font-family: monospace ; font-size: medium ; font-style: normal ; font-weight: 400 ; letter-spacing: normal ; text-indent: 0px ; text-transform: none ; word-spacing: 0px ; background-color: rgb(255 , 255 , 255) ; display: inline ; float: none&quot;&gt;&lt;/span&gt;&lt;span style=&quot;color: rgb(0 , 0 , 0) ; font-family: monospace ; font-size: medium ; font-style: normal ; font-weight: 400 ; letter-spacing: normal ; text-indent: 0px ; text-transform: none ; word-spacing: 0px ; background-color: rgb(255 , 255 , 255) ; display: inline ; float: none&quot;&gt;&lt;/span&gt;vendor/mediatek/proprietary/hardware/thermal/&lt;/div&gt;" style="rounded=0;whiteSpace=wrap;html=1;" vertex="1" parent="Qd0OxM6gDkYLaGl2a9qX-1">
          <mxGeometry x="310" y="260" width="300" height="60" as="geometry" />
        </mxCell>
        <mxCell id="Qd0OxM6gDkYLaGl2a9qX-9" value="&lt;font style=&quot;font-size: 19px&quot;&gt;Summary&lt;/font&gt;" style="text;html=1;align=center;verticalAlign=middle;resizable=0;points=[];autosize=1;" vertex="1" parent="Qd0OxM6gDkYLaGl2a9qX-1">
          <mxGeometry x="30" y="30" width="100" height="20" as="geometry" />
        </mxCell>
        <mxCell id="Qd0OxM6gDkYLaGl2a9qX-10" value="&lt;div&gt;Android8+&lt;/div&gt;&lt;div&gt;frameworks/base/services/core/java/com/android/server/power/ThermalManagerService.java&lt;br&gt;&lt;span style=&quot;color: rgb(0 , 0 , 0) ; font-family: monospace ; font-size: medium ; font-style: normal ; font-weight: 400 ; letter-spacing: normal ; text-indent: 0px ; text-transform: none ; word-spacing: 0px ; background-color: rgb(255 , 255 , 255) ; display: inline ; float: none&quot;&gt;&lt;/span&gt;&lt;span style=&quot;color: rgb(0 , 0 , 0) ; font-family: monospace ; font-size: medium ; font-style: normal ; font-weight: 400 ; letter-spacing: normal ; text-indent: 0px ; text-transform: none ; word-spacing: 0px ; background-color: rgb(255 , 255 , 255) ; display: inline ; float: none&quot;&gt;&lt;/span&gt;&lt;span style=&quot;color: rgb(0 , 0 , 0) ; font-family: monospace ; font-size: medium ; font-style: normal ; font-weight: 400 ; letter-spacing: normal ; text-indent: 0px ; text-transform: none ; word-spacing: 0px ; background-color: rgb(255 , 255 , 255) ; display: inline ; float: none&quot;&gt;&lt;/span&gt;&lt;/div&gt;" style="rounded=0;whiteSpace=wrap;html=1;" vertex="1" parent="Qd0OxM6gDkYLaGl2a9qX-1">
          <mxGeometry x="310" y="100" width="300" height="60" as="geometry" />
        </mxCell>
      </root>
    </mxGraphModel>
  </diagram>
</mxfile>
